<svg width="299" height="272" viewBox="0 0 299 272" fill="none" xmlns="http://www.w3.org/2000/svg">
<mask id="path-1-inside-1_7997_1565" fill="white">
<path fill-rule="evenodd" clip-rule="evenodd" d="M91.0343 2.64051C67.1029 -1.57924 44.282 14.4002 40.0622 38.3315L17.1407 168.326C12.9209 192.257 28.9003 215.078 52.8317 219.298L67.7555 221.93C68.4887 222.242 69.2344 222.537 69.9923 222.812L194.032 267.959C216.867 276.27 242.116 264.497 250.427 241.662L295.574 117.622C303.885 94.7871 292.111 69.538 269.276 61.2268L255.535 56.2255C250.894 40.8272 237.949 28.5455 221.029 25.5621L91.0343 2.64051Z"/>
</mask>
<path fill-rule="evenodd" clip-rule="evenodd" d="M91.0343 2.64051C67.1029 -1.57924 44.282 14.4002 40.0622 38.3315L17.1407 168.326C12.9209 192.257 28.9003 215.078 52.8317 219.298L67.7555 221.93C68.4887 222.242 69.2344 222.537 69.9923 222.812L194.032 267.959C216.867 276.27 242.116 264.497 250.427 241.662L295.574 117.622C303.885 94.7871 292.111 69.538 269.276 61.2268L255.535 56.2255C250.894 40.8272 237.949 28.5455 221.029 25.5621L91.0343 2.64051Z" fill="#1A1E21" fill-opacity="0.7"/>
<path d="M40.0622 38.3315L38.0926 37.9842L40.0622 38.3315ZM91.0343 2.64051L90.687 4.61012L91.0343 2.64051ZM17.1407 168.326L15.171 167.979L17.1407 168.326ZM52.8317 219.298L53.179 217.329L52.8317 219.298ZM67.7555 221.93L68.5396 220.09L68.3286 220L68.1028 219.96L67.7555 221.93ZM69.9923 222.812L70.6763 220.933L70.6763 220.933L69.9923 222.812ZM194.032 267.959L193.348 269.839L194.032 267.959ZM250.427 241.662L248.548 240.978L250.427 241.662ZM295.574 117.622L293.694 116.938L295.574 117.622ZM269.276 61.2268L268.592 63.1062L269.276 61.2268ZM255.535 56.2255L253.62 56.8027L253.91 57.7622L254.851 58.1049L255.535 56.2255ZM221.029 25.5621L221.376 23.5925L221.029 25.5621ZM42.0318 38.6788C46.0598 15.8353 67.8434 0.582186 90.687 4.61012L91.3816 0.670891C66.3624 -3.74066 42.5042 12.9651 38.0926 37.9842L42.0318 38.6788ZM19.1103 168.673L42.0318 38.6788L38.0926 37.9842L15.171 167.979L19.1103 168.673ZM53.179 217.329C30.3354 213.301 15.0823 191.517 19.1103 168.673L15.171 167.979C10.7595 192.998 27.4652 216.856 52.4844 221.268L53.179 217.329ZM68.1028 219.96L53.179 217.329L52.4844 221.268L67.4082 223.899L68.1028 219.96ZM70.6763 220.933C69.9521 220.67 69.2398 220.388 68.5396 220.09L66.9714 223.77C67.7375 224.096 68.5166 224.404 69.3083 224.692L70.6763 220.933ZM194.716 266.08L70.6763 220.933L69.3082 224.692L193.348 269.839L194.716 266.08ZM248.548 240.978C240.614 262.775 216.513 274.013 194.716 266.08L193.348 269.839C217.221 278.528 243.617 266.219 252.306 242.346L248.548 240.978ZM293.694 116.938L248.548 240.978L252.306 242.346L297.453 118.306L293.694 116.938ZM268.592 63.1062C290.389 71.0396 301.628 95.141 293.694 116.938L297.453 118.306C306.142 94.4332 293.833 68.0364 269.96 59.3474L268.592 63.1062ZM254.851 58.1049L268.592 63.1062L269.96 59.3474L256.219 54.3461L254.851 58.1049ZM220.682 27.5317C236.83 30.379 249.188 42.099 253.62 56.8027L257.45 55.6483C252.599 39.5553 239.068 26.712 221.376 23.5925L220.682 27.5317ZM90.687 4.61012L220.682 27.5317L221.376 23.5925L91.3816 0.670891L90.687 4.61012Z" fill="url(#paint0_linear_7997_1565)" mask="url(#path-1-inside-1_7997_1565)"/>
<rect opacity="0.6" x="48.5143" y="-3.84154" width="218" height="218" rx="43" transform="rotate(10 48.5143 -3.84154)" fill="#1A1E21" stroke="url(#paint1_linear_7997_1565)" stroke-width="2"/>
<rect x="1" y="1" width="218" height="218" rx="43" fill="url(#paint2_linear_7997_1565)"/>
<path d="M149.774 80.929H141.778V121.957H149.774V80.929Z" fill="#F7A600"/>
<path fill-rule="evenodd" clip-rule="evenodd" d="M32.1709 134.526H49.3134C56.6159 134.526 61.856 130.377 61.856 122.715C61.856 117.24 58.6939 114.645 56.2169 113.491C58.2875 112.511 61.2762 109.577 61.2762 105.022C61.2762 97.9925 56.6159 93.4973 48.6208 93.4973H32.1709V134.526ZM40.1662 100.64H47.9883C51.3837 100.64 53.2811 102.548 53.2811 105.368C53.2811 108.197 51.3837 110.097 47.9883 110.097H40.1662V100.64ZM40.1662 117.3H48.5078C52.129 117.3 53.8605 119.547 53.8605 122.315C53.8605 125.076 52.129 127.383 48.5078 127.383H40.1662V117.3Z" fill="white"/>
<path d="M86.2411 134.526V117.7L98.5503 93.4973H89.8697L82.3338 110.037L74.6845 93.4973H65.9967L78.3058 117.7V134.526H86.2411Z" fill="white"/>
<path fill-rule="evenodd" clip-rule="evenodd" d="M121.219 134.526H104.077V93.4973H120.527C128.522 93.4973 133.182 97.9925 133.182 105.022C133.182 109.577 130.193 112.511 128.123 113.491C130.6 114.645 133.762 117.24 133.762 122.715C133.762 130.377 128.522 134.526 121.219 134.526ZM119.894 100.64H112.072V110.097H119.894C123.29 110.097 125.187 108.197 125.187 105.368C125.187 102.548 123.29 100.64 119.894 100.64ZM120.414 117.3H112.072V127.383H120.414C124.035 127.383 125.767 125.076 125.767 122.315C125.759 119.547 124.035 117.3 120.414 117.3Z" fill="white"/>
<path d="M176.267 134.526V100.64H186.965V93.4973H157.573V100.64H168.271V134.526H176.267Z" fill="white"/>
<rect x="1" y="1" width="218" height="218" rx="43" stroke="url(#paint3_linear_7997_1565)" stroke-width="2"/>
<defs>
<linearGradient id="paint0_linear_7997_1565" x1="16.4648" y1="-4.75181" x2="273.303" y2="276.752" gradientUnits="userSpaceOnUse">
<stop stop-color="white"/>
<stop offset="0.5" stop-color="white" stop-opacity="0"/>
<stop offset="1" stop-color="white" stop-opacity="0.6"/>
</linearGradient>
<linearGradient id="paint1_linear_7997_1565" x1="47.7031" y1="-10.5" x2="258.703" y2="210" gradientUnits="userSpaceOnUse">
<stop stop-color="white" stop-opacity="0.4"/>
<stop offset="0.5" stop-color="white" stop-opacity="0"/>
<stop offset="1" stop-color="white" stop-opacity="0.6"/>
</linearGradient>
<linearGradient id="paint2_linear_7997_1565" x1="40.9271" y1="38.1528" x2="267.718" y2="298.636" gradientUnits="userSpaceOnUse">
<stop stop-color="#1A1E21"/>
<stop offset="1" stop-color="#06060A"/>
</linearGradient>
<linearGradient id="paint3_linear_7997_1565" x1="1.07139e-06" y1="-5.5" x2="211" y2="215" gradientUnits="userSpaceOnUse">
<stop stop-color="white" stop-opacity="0.6"/>
<stop offset="0.5" stop-color="white" stop-opacity="0"/>
<stop offset="1" stop-color="white" stop-opacity="0.6"/>
</linearGradient>
</defs>
</svg>
